<svg height="512" viewBox="0 0 57 60" width="512" xmlns="http://www.w3.org/2000/svg"><path id="Shape" d="m51.392 2.664c-1.6211496-1.82675731-4.3331515-2.19634404-6.384-.87-1.6092236-.54773739-3.3002587-.81627376-5-.794-2.3710787-.03797341-4.6182311 1.05663125-6.05 2.947-2.08 2.722-2.511 6.965-1.263 11.981l-1.029.961c-.3651024.3438995-.9348976.3438995-1.3 0l-8.737-8.158c.5186477-1.1609973.2403815-2.52337584-.692-3.388l-3.209-3c-.9751679-.91340529-2.2780615-1.39398474-3.6127873-1.33259639s-2.5880054.65953445-3.4752127 1.65859639l-5.349 5.984c-.9609438 1.0873554-1.40501893 2.53698-1.218 3.976-3.784 7.021-2.146 12.187-.825 16.342 1.963 6.176.729 5.781.472 8.248-1.532 2.155-2.715 4.195-2.715 6.781-.11406131 1.8896234.56638231 3.7409956 1.877 5.107 1.86 1.79 4.576 2.012 7.129 1.923.0161454.5382141.455552.9670114.994.97h12.279c.1738671.2989563.422285.5477187.721.722v4.278c0 2.209139 1.790861 4 4 4h6c2.209139 0 4-1.790861 4-4v-4.278c.6167513-.3544126.997855-1.0106732 1-1.722v-14c-.0022923-.7194243-.3921339-1.3817727-1.02-1.733v-4.577c.0012232-.292063.1223378-.5708074.335-.771l11.727-10.995c1.1220511.5929838 2.4968717.4077727 3.422-.461l2.94-2.753c1.9863025-1.8831884 2.1285255-4.9997262.322-7.056zm-15.848 2.5c1.0569881-1.39125255 2.7140479-2.19508074 4.461-2.164 1.0846098-.00777305 2.1665781.1079724 3.225.345l-2.151 2.019c-.9267897.8618085-1.2054097 2.21636744-.694 3.374l-6.012 5.619c-.792-3.923-.391-7.15 1.171-9.195zm-28.763 4.822 5.355-5.994c.5289294-.5959466 1.2764432-.95257921 2.0724399-.98874376.7959968-.03616454 1.57277.25121508 2.1535601.79674376l3.209 3c.1940298.18169726.3077324.43317074.3159884.69886477.0082561.26569402-.0896139.52374179-.2719884.71713523l-8.3 8.741c-.1817983.1935885-.4331347.3069117-.6985816.3149783s-.5232006-.089786-.7164184-.2719783l-2.931-2.75c-1.20151913-1.1384208-1.28466554-3.0242522-.188-4.264zm30.225 27.014v14h-12v-14zm-12.981-1.733c-.6268008.3523152-1.0162394 1.0139791-1.02 1.733v3h-12c-.522753.0026983-.9538938.4102269-.986.932-2.007-.243-4.25-1.016-4.329-3.033.2-.273.4-.551.614-.837 2.793-3.794 6.224-8.458 6.655-17.2l10.741 10.062c.2097828.199613.3286743.4764243.329.766zm-18.937-20.147c.409.526.115.215 3.444 3.339.65304563.6186701 1.5541615.9029419 2.444.771-.0668414 5.1500131-1.68991376 10.1593664-4.656 14.37-.18-5.3-4.795-10.293-1.232-18.48zm-2.083 28.88c.04620232-1.4180008.48403668-2.795535 1.265-3.98 1.111 1.9 3.538 2.688 5.735 2.917v6.092c-4.27.151-7-.803-7-5.029zm9-2h11v8h-11zm22 17h-6c-1.1045695 0-2-.8954305-2-2v-4h10v4c0 1.1045695-.8954305 2-2 2zm2.951-30.544c-.6195886.5777025-.9712901 1.3868694-.971 2.234v4.31h-9.96v-4.31c.0013183-.8451589-.3485702-1.6528727-.966-2.23l-11.596-10.86 6.926-7.29 8.605 8.043c1.1372714 1.0561771 2.8967286 1.0561771 4.034 0l8.594-8.032 6.917 7.279zm18.086-14.206-2.942 2.75c-.401223.376616-1.0313389.3582935-1.41-.041l-8.285-8.72c-.1838128-.19300564-.2829713-.45140439-.2754611-.71782871.0075102-.26642433.1210676-.51882685.3154611-.70117129l3.222-3.02c.5823922-.5462469 1.3612267-.83326998 2.1588145-.7955857.7975877.03768428 1.5458907.39686127 2.0741855.9955857l5.339 5.988c1.0882691 1.2434901 1.001338 3.1242024-.197 4.262z" transform="translate(-1 -1)"/></svg>